# xmcd CD database file
#
# Track frame offsets:
#	150
#	13414
#	25349
#	35978
#	49557
#	63746
#	80145
#	97683
#	111518
#	121937
#
# Disc length: 1819 seconds
#
# Revision: 1
# Processed by: cddbd v1.5.2PL0 Copyright (c) Steve Scherf et al.
# Submitted via: CDex 1.70beta2
#
DISCID=8a07190a
DTITLE=Lucia Šoralová,Michal Horáček a La Alma - O lásce, cti a kuráži
DYEAR=2012
DGENRE=Chanson
TTITLE0=Yes, you can
TTITLE1=Kejklíři
TTITLE2=Nanebevzetí
TTITLE3=Nachytaná v nedbalkách (s Petrem Hapkou)
TTITLE4=Červená
TTITLE5=Štědrý večer II
TTITLE6=O lásce, cti a kuráži
TTITLE7=Milovaná II
TTITLE8=Vítejte poutníci do srdce Evropy
TTITLE9=Nakonec přijde začátek II
EXTD=YEAR: 2012
EXTT0=
EXTT1=
EXTT2=
EXTT3=
EXTT4=
EXTT5=
EXTT6=
EXTT7=
EXTT8=
EXTT9=
PLAYORDER=
